HIERARCHY
ROOT Hips
{
    OFFSET 0.000000 0.000000 0.000000
    CHANNELS 6 Xposition Yposition Zposition Zrotation Xrotation Yrotation
    JOINT Spine
    {
        OFFSET -0.000000 0.081317 0.000000
        CHANNELS 3 Zrotation Xrotation Yrotation
        JOINT Spine1
        {
            OFFSET -0.000000 0.225200 0.000000
            CHANNELS 3 Zrotation Xrotation Yrotation
            JOINT Neck
            {
                OFFSET -0.000000 0.224275 0.020389
                CHANNELS 3 Zrotation Xrotation Yrotation
                JOINT Head
                {
                    OFFSET -0.000000 0.138833 -0.019833
                    CHANNELS 3 Zrotation Xrotation Yrotation
                    End Site
                    {
                        OFFSET -0.000000 0.198333 0.000000
                    }
                }
            }
            JOINT LeftShoulder
            {
                OFFSET 0.039732 0.208237 -0.000812
                CHANNELS 3 Zrotation Xrotation Yrotation
                JOINT LeftArm
                {
                    OFFSET 0.110955 0.000000 0.000000
                    CHANNELS 3 Zrotation Xrotation Yrotation
                    JOINT LeftForeArm
                    {
                        OFFSET 0.324523 0.000000 0.000000
                        CHANNELS 3 Zrotation Xrotation Yrotation
                        JOINT LeftHand
                        {
                            OFFSET 0.302601 0.000000 0.000000
                            CHANNELS 3 Zrotation Xrotation Yrotation
                            End Site
                            {
                                OFFSET 0.148750 0.000000 0.000000
                            }
                        }
                    }
                }
            }
            JOINT RightShoulder
            {
                OFFSET -0.039598 0.208237 -0.000812
                CHANNELS 3 Zrotation Xrotation Yrotation
                JOINT RightArm
                {
                    OFFSET -0.110955 0.000000 0.000000
                    CHANNELS 3 Zrotation Xrotation Yrotation
                    JOINT RightForeArm
                    {
                        OFFSET -0.324523 0.000000 0.000000
                        CHANNELS 3 Zrotation Xrotation Yrotation
                        JOINT RightHand
                        {
                            OFFSET -0.302601 0.000000 0.000000
                            CHANNELS 3 Zrotation Xrotation Yrotation
                            End Site
                            {
                                OFFSET -0.148750 0.000000 0.000000
                            }
                        }
                    }
                }
            }
        }
    }
    JOINT LeftUpLeg
    {
        OFFSET 0.099167 0.000000 0.000000
        CHANNELS 3 Zrotation Xrotation Yrotation
        JOINT LeftLeg
        {
            OFFSET -0.000000 -0.380753 0.000000
            CHANNELS 3 Zrotation Xrotation Yrotation
            JOINT LeftFoot
            {
                OFFSET -0.000000 -0.440093 0.000000
                CHANNELS 3 Zrotation Xrotation Yrotation
                JOINT LeftToeBase
                {
                    OFFSET -0.000000 -0.064458 0.148750
                    CHANNELS 3 Zrotation Xrotation Yrotation
                    End Site
                    {
                        OFFSET -0.000000 0.000000 0.039667
                    }
                }
            }
        }
    }
    JOINT RightUpLeg
    {
        OFFSET -0.099167 0.000000 0.000000
        CHANNELS 3 Zrotation Xrotation Yrotation
        JOINT RightLeg
        {
            OFFSET -0.000000 -0.380753 0.000000
            CHANNELS 3 Zrotation Xrotation Yrotation
            JOINT RightFoot
            {
                OFFSET -0.000000 -0.440093 0.000000
                CHANNELS 3 Zrotation Xrotation Yrotation
                JOINT RightToeBase
                {
                    OFFSET -0.000000 -0.064458 0.148750
                    CHANNELS 3 Zrotation Xrotation Yrotation
                    End Site
                    {
                        OFFSET -0.000000 0.000000 0.039667
                    }
                }
            }
        }
    }
}
MOTION
Frames:    8
Frame Time:    0.010000
-0.419951    0.454771    0.001030    -2.552795    -3.250055    25.490110    -9.146998    6.766774    -0.066635    12.856645    42.145672    -5.167463    2.772195    35.877808    -4.633167    0.962219    -56.540569    -3.654979    -11.298778    -6.232757    -15.678111    -27.722076    -50.276966    -13.363347    1.855829    15.896490    -67.629143    79.208420    13.986567    -3.888889    5.211083    -8.675950    13.325812    38.142757    15.036164    -0.380322    -90.382088    -45.575592    30.415129    -5.486752    -18.607405    -4.063281    33.932148    -58.855965    55.110485    151.035385    40.201302    -105.727219    -20.673140    -15.319148    -54.468025    0.000000    0.000000    0.000000    21.705404    -82.528000    28.505594    156.184814    60.648464    -140.751694    -21.483686    -21.490337    -18.490929    0.000000    0.000000    0.000000    
-0.420386    0.445380    -0.002190    -2.636633    -2.850554    25.517132    -8.939981    7.074681    -0.006018    13.055175    42.300358    -5.246898    3.054105    35.372154    -4.785121    -0.024426    -57.033909    -4.397218    -11.818647    -5.595458    -16.302351    -29.397085    -48.349770    -15.174438    3.192285    17.192846    -65.843704    75.663216    15.942471    -4.338745    5.240209    -8.600351    13.863686    38.339939    16.716606    1.743923    -88.543564    -43.977531    29.591188    -5.161997    -18.373850    -4.025879    35.196571    -60.432461    56.594376    152.016510    38.822281    -106.488190    -20.923292    -15.324781    -54.517895    0.000000    0.000000    0.000000    24.654823    -84.300339    32.621021    155.503052    59.188511    -139.498871    -21.695311    -21.669437    -18.664495    0.000000    0.000000    0.000000    
-0.420787    0.437307    -0.005467    -2.749672    -2.632349    25.486530    -8.773671    7.570135    0.063027    13.475878    42.275928    -5.394070    3.162545    34.860073    -4.887283    -0.932760    -57.072815    -5.078328    -12.353054    -5.054976    -16.804556    -30.774685    -46.337017    -16.669247    4.595653    18.454285    -64.681168    72.823631    17.768499    -4.921144    5.084866    -8.797159    14.618424    38.420532    18.260206    3.333875    -86.355362    -42.665939    29.251165    -4.227225    -18.176197    -3.579799    36.401894    -61.869694    57.847115    152.868134    37.902206    -107.242889    -20.721815    -15.065462    -54.209637    0.000000    0.000000    0.000000    30.363188    -85.640137    38.185871    156.505295    58.490128    -140.714691    -21.825375    -21.932405    -18.503435    0.000000    0.000000    0.000000    
-0.420797    0.430897    -0.008517    -2.814668    -2.492932    25.397974    -8.476695    8.136705    0.139035    13.542023    42.125896    -5.381852    3.057499    34.618130    -4.909580    -0.985622    -57.080616    -5.162616    -12.810646    -4.551905    -17.336653    -31.629618    -44.018116    -17.684340    5.743754    19.110132    -64.160202    70.324547    19.102461    -5.122759    5.225763    -8.791526    15.415836    38.013531    19.259792    4.900800    -83.983063    -41.138752    29.229141    -3.786761    -17.408218    -3.656022    37.090488    -62.725964    58.126129    153.755035    37.190880    -107.711494    -21.700150    -14.917212    -55.114632    0.000000    0.000000    0.000000    35.878551    -86.816902    44.112553    156.499161    57.669575    -140.071823    -22.159779    -21.749807    -18.757467    0.000000    0.000000    0.000000    
-0.420427    0.426149    -0.011653    -2.843102    -2.528861    25.050037    -8.068507    8.918786    0.395918    13.336653    41.868313    -5.191772    2.787783    34.425671    -4.892938    -0.388707    -56.974056    -4.819940    -13.109612    -4.108614    -17.888546    -32.336624    -42.017822    -18.448677    6.425541    19.566975    -64.141922    68.513916    20.234308    -4.873417    5.374991    -8.966524    16.225094    37.637127    19.857660    6.146221    -81.354980    -39.888607    29.745129    -2.707973    -16.622131    -3.465647    37.597870    -63.078732    58.570667    153.788620    36.648842    -102.437157    -23.732084    -12.488365    -61.311909    0.000000    0.000000    0.000000    44.363701    -87.405571    52.843739    156.521698    57.246784    -139.894196    -22.246271    -21.800871    -18.604757    0.000000    0.000000    0.000000    
-0.419756    0.423083    -0.013784    -2.764375    -2.651942    24.715672    -7.874825    9.350046    0.776714    13.451458    42.135250    -5.152904    2.894655    34.293690    -5.038069    -0.326796    -57.028076    -4.915983    -13.233112    -3.661914    -18.680740    -32.854809    -40.019600    -18.939047    6.891611    19.471085    -64.585487    66.976425    20.936922    -4.230140    5.375501    -9.073936    16.847162    37.162045    19.778898    7.316431    -77.831749    -39.310593    31.320515    -1.802636    -16.157705    -2.956810    37.903793    -63.187313    59.574516    154.388351    36.128109    -107.570755    -22.490820    -15.129510    -55.406086    0.000000    0.000000    0.000000    51.067898    -87.684464    59.474476    156.965500    57.054752    -140.359436    -22.139982    -21.761293    -18.311348    0.000000    0.000000    0.000000    
-0.412155    0.404385    -0.055920    -6.795264    8.870259    26.362156    -1.423378    1.704378    -3.365872    5.017244    38.389297    -2.865175    3.159270    34.128971    -5.271153    -0.744579    -57.155899    -5.382554    -13.224929    -3.149256    -19.166378    -33.546093    -37.957722    -19.621923    7.341537    18.989790    -65.335503    65.876381    21.320717    -3.444972    5.331647    -9.127249    17.206381    36.659645    19.698889    8.337915    -74.566475    -38.710587    32.986111    -1.022253    -15.543417    -2.641230    53.945354    -79.505898    72.893631    163.008835    38.737911    -116.226212    -25.309923    -20.946756    -53.124008    0.000000    0.000000    0.000000    -171.463089    -75.798653    -163.492630    163.207474    59.563854    -150.150391    -20.002167    -24.376776    -12.380959    0.000000    0.000000    0.000000    
-0.411446    0.403578    -0.058805    -6.707835    9.413807    26.003437    -1.428454    1.701166    -3.112899    5.070332    38.475021    -2.803330    3.307802    33.881477    -5.438406    -1.191607    -57.273270    -5.824682    -13.321886    -2.705941    -19.240189    -34.166477    -35.876598    -20.539837    7.697639    18.326225    -66.208427    65.177612    21.419285    -2.720850    5.125759    -9.194901    17.565786    36.203381    20.139450    9.125824    -72.331596    -38.128407    33.845043    -0.875273    -15.183158    -2.355519    53.811646    -79.991028    73.960983    162.387177    38.621365    -114.488205    -26.475174    -20.835577    -53.887032    0.000000    0.000000    0.000000    -172.332687    -74.988136    -164.171814    163.293121    59.683277    -150.278656    -20.195889    -23.932409    -11.977480    0.000000    0.000000    0.000000    
